<svg width="499" height="217" viewBox="0 0 499 217" fill="none" xmlns="http://www.w3.org/2000/svg">
<path d="M3.024 53V14.12H10.08V30.392H18V14.12H25.104V53H18V35.432H10.08V53H3.024ZM29.085 53L36.861 14.12H44.445L52.221 53H45.645L44.109 44.024H37.341L35.757 53H29.085ZM38.061 39.512H43.341L40.701 23.192L38.061 39.512ZM56.1311 53V14.12H65.4431C68.0671 14.12 70.2751 14.44 72.0671 15.08C73.8911 15.688 75.2671 16.744 76.1951 18.248C77.1551 19.752 77.6351 21.8 77.6351 24.392C77.6351 25.96 77.4911 27.368 77.2031 28.616C76.9151 29.864 76.4191 30.936 75.7151 31.832C75.0431 32.696 74.0991 33.368 72.8831 33.848L78.3071 53H71.2031L66.4991 35.192H63.2351V53H56.1311ZM63.2351 30.728H65.4431C66.8191 30.728 67.9071 30.536 68.7071 30.152C69.5391 29.736 70.1311 29.096 70.4831 28.232C70.8351 27.336 71.0111 26.2 71.0111 24.824C71.0111 22.872 70.6431 21.416 69.9071 20.456C69.2031 19.464 67.8431 18.968 65.8271 18.968H63.2351V30.728ZM83.0374 53V14.12H92.5894C94.3174 14.12 95.8694 14.28 97.2454 14.6C98.6534 14.92 99.8534 15.464 100.845 16.232C101.869 16.968 102.653 17.976 103.197 19.256C103.741 20.536 104.013 22.152 104.013 24.104C104.013 25.672 103.789 27.016 103.341 28.136C102.925 29.256 102.301 30.152 101.469 30.824C100.637 31.464 99.5974 31.896 98.3494 32.12C99.8854 32.376 101.149 32.92 102.141 33.752C103.165 34.552 103.917 35.608 104.397 36.92C104.909 38.232 105.165 39.816 105.165 41.672C105.165 43.528 104.925 45.176 104.445 46.616C103.997 48.024 103.309 49.208 102.381 50.168C101.485 51.096 100.349 51.8 98.9734 52.28C97.6294 52.76 96.0454 53 94.2214 53H83.0374ZM90.1414 48.008H92.8294C94.9734 48.008 96.4294 47.496 97.1974 46.472C97.9654 45.416 98.3494 43.8 98.3494 41.624C98.3494 40.056 98.1574 38.792 97.7734 37.832C97.4214 36.84 96.8134 36.104 95.9494 35.624C95.1174 35.144 93.9974 34.904 92.5894 34.904H90.1414V48.008ZM90.1414 30.008H92.5414C93.9494 30.008 95.0374 29.8 95.8054 29.384C96.5734 28.968 97.1014 28.328 97.3894 27.464C97.7094 26.6 97.8694 25.512 97.8694 24.2C97.8694 22.824 97.6294 21.768 97.1494 21.032C96.7014 20.264 96.0134 19.752 95.0854 19.496C94.1574 19.208 92.9734 19.064 91.5334 19.064H90.1414V30.008ZM120.316 53.528C117.564 53.528 115.372 53.016 113.74 51.992C112.108 50.968 110.94 49.496 110.236 47.576C109.532 45.656 109.18 43.384 109.18 40.76V26.216C109.18 23.592 109.532 21.352 110.236 19.496C110.94 17.608 112.108 16.168 113.74 15.176C115.372 14.184 117.564 13.688 120.316 13.688C123.132 13.688 125.34 14.184 126.94 15.176C128.572 16.168 129.74 17.608 130.444 19.496C131.18 21.352 131.548 23.592 131.548 26.216V40.808C131.548 43.4 131.18 45.656 130.444 47.576C129.74 49.464 128.572 50.936 126.94 51.992C125.34 53.016 123.132 53.528 120.316 53.528ZM120.316 48.296C121.5 48.296 122.364 48.04 122.908 47.528C123.484 47.016 123.868 46.312 124.06 45.416C124.252 44.52 124.348 43.544 124.348 42.488V24.584C124.348 23.496 124.252 22.52 124.06 21.656C123.868 20.792 123.484 20.12 122.908 19.64C122.364 19.128 121.5 18.872 120.316 18.872C119.196 18.872 118.348 19.128 117.772 19.64C117.196 20.12 116.812 20.792 116.62 21.656C116.428 22.52 116.332 23.496 116.332 24.584V42.488C116.332 43.544 116.412 44.52 116.572 45.416C116.764 46.312 117.148 47.016 117.724 47.528C118.3 48.04 119.164 48.296 120.316 48.296ZM147.459 53.528C144.579 53.528 142.339 53 140.739 51.944C139.139 50.888 138.035 49.384 137.427 47.432C136.819 45.48 136.515 43.144 136.515 40.424V14.12H143.427V41.24C143.427 42.456 143.507 43.608 143.667 44.696C143.827 45.752 144.195 46.616 144.771 47.288C145.379 47.928 146.275 48.248 147.459 48.248C148.707 48.248 149.603 47.928 150.147 47.288C150.723 46.616 151.091 45.752 151.251 44.696C151.443 43.608 151.539 42.456 151.539 41.24V14.12H158.403V40.424C158.403 43.144 158.099 45.48 157.491 47.432C156.883 49.384 155.779 50.888 154.179 51.944C152.611 53 150.371 53.528 147.459 53.528ZM163.991 53V14.12H173.303C175.927 14.12 178.135 14.44 179.927 15.08C181.751 15.688 183.127 16.744 184.055 18.248C185.015 19.752 185.495 21.8 185.495 24.392C185.495 25.96 185.351 27.368 185.062 28.616C184.775 29.864 184.279 30.936 183.575 31.832C182.903 32.696 181.959 33.368 180.743 33.848L186.167 53H179.063L174.359 35.192H171.095V53H163.991ZM171.095 30.728H173.303C174.679 30.728 175.767 30.536 176.567 30.152C177.399 29.736 177.991 29.096 178.343 28.232C178.695 27.336 178.871 26.2 178.871 24.824C178.871 22.872 178.503 21.416 177.767 20.456C177.063 19.464 175.703 18.968 173.687 18.968H171.095V30.728ZM202.569 53V14.12H209.673V48.104H219.081V53H202.569ZM222.964 53V14.12H229.972V53H222.964ZM245.734 53.528C243.175 53.528 241.143 52.984 239.639 51.896C238.135 50.808 237.047 49.272 236.375 47.288C235.735 45.272 235.415 42.904 235.415 40.184V27.128C235.415 24.344 235.735 21.944 236.375 19.928C237.015 17.912 238.135 16.376 239.735 15.32C241.367 14.232 243.607 13.688 246.455 13.688C249.111 13.688 251.223 14.136 252.791 15.032C254.359 15.928 255.479 17.224 256.151 18.92C256.855 20.584 257.207 22.616 257.207 25.016V27.032H250.439V24.824C250.439 23.576 250.343 22.504 250.151 21.608C249.991 20.712 249.639 20.04 249.095 19.592C248.583 19.112 247.735 18.872 246.551 18.872C245.303 18.872 244.391 19.176 243.815 19.784C243.271 20.392 242.919 21.192 242.759 22.184C242.631 23.176 242.567 24.264 242.567 25.448V41.72C242.567 43.064 242.679 44.232 242.903 45.224C243.127 46.216 243.543 46.984 244.151 47.528C244.759 48.04 245.623 48.296 246.743 48.296C247.895 48.296 248.775 48.008 249.383 47.432C249.991 46.856 250.407 46.056 250.631 45.032C250.887 44.008 251.015 42.792 251.015 41.384V37.736H246.839V33.272H257.399V53H252.839L252.311 49.16C251.799 50.44 251.015 51.496 249.959 52.328C248.935 53.128 247.527 53.528 245.734 53.528ZM262.899 53V14.12H269.955V30.392H277.875V14.12H284.979V53H277.875V35.432H269.955V53H262.899ZM294.816 53V19.352H288.624V14.12H308.016V19.352H301.92V53H294.816ZM321.345 53.528C319.009 53.528 317.057 53.08 315.489 52.184C313.921 51.256 312.737 49.912 311.937 48.152C311.137 46.392 310.689 44.232 310.593 41.672L316.689 40.472C316.753 41.976 316.929 43.304 317.217 44.456C317.537 45.608 318.001 46.504 318.609 47.144C319.249 47.752 320.081 48.056 321.105 48.056C322.257 48.056 323.073 47.72 323.553 47.048C324.033 46.344 324.273 45.464 324.273 44.408C324.273 42.712 323.889 41.32 323.121 40.232C322.353 39.144 321.329 38.056 320.049 36.968L315.153 32.648C313.777 31.464 312.673 30.152 311.841 28.712C311.041 27.24 310.641 25.432 310.641 23.288C310.641 20.216 311.537 17.848 313.329 16.184C315.121 14.52 317.569 13.688 320.673 13.688C322.497 13.688 324.017 13.976 325.233 14.552C326.449 15.096 327.409 15.864 328.113 16.856C328.849 17.848 329.393 18.984 329.745 20.264C330.097 21.512 330.321 22.84 330.417 24.248L324.369 25.304C324.305 24.088 324.161 23 323.937 22.04C323.745 21.08 323.377 20.328 322.833 19.784C322.321 19.24 321.553 18.968 320.529 18.968C319.473 18.968 318.657 19.32 318.081 20.024C317.537 20.696 317.265 21.544 317.265 22.568C317.265 23.88 317.537 24.968 318.081 25.832C318.625 26.664 319.409 27.528 320.433 28.424L325.281 32.696C326.881 34.04 328.241 35.624 329.361 37.448C330.513 39.24 331.089 41.416 331.089 43.976C331.089 45.832 330.673 47.48 329.841 48.92C329.041 50.36 327.905 51.496 326.433 52.328C324.993 53.128 323.297 53.528 321.345 53.528ZM2.928 115V76.12H12.096C15.264 76.12 17.728 76.552 19.488 77.416C21.28 78.28 22.544 79.608 23.28 81.4C24.048 83.192 24.432 85.464 24.432 88.216V102.424C24.432 105.24 24.048 107.592 23.28 109.48C22.544 111.336 21.296 112.728 19.536 113.656C17.808 114.552 15.424 115 12.384 115H2.928ZM10.032 110.056H12.192C13.824 110.056 14.992 109.768 15.696 109.192C16.4 108.616 16.832 107.784 16.992 106.696C17.152 105.576 17.232 104.216 17.232 102.616V87.736C17.232 86.168 17.12 84.904 16.896 83.944C16.672 82.984 16.208 82.28 15.504 81.832C14.8 81.384 13.664 81.16 12.096 81.16H10.032V110.056ZM29.6468 115V76.12H45.9668V81.112H36.7508V92.296H43.9988V97.24H36.7508V110.104H46.0628V115H29.6468Z" fill="#FCFCFC"/>
<path d="M71.5939 115.528C69.0339 115.528 67.0019 114.984 65.4979 113.896C63.9939 112.808 62.9059 111.272 62.2339 109.288C61.5939 107.272 61.2739 104.904 61.2739 102.184V89.128C61.2739 86.344 61.5939 83.944 62.2339 81.928C62.8739 79.912 63.9939 78.376 65.5939 77.32C67.2259 76.232 69.4659 75.688 72.3139 75.688C74.9699 75.688 77.0819 76.136 78.6499 77.032C80.2179 77.928 81.3379 79.224 82.0099 80.92C82.7139 82.584 83.0659 84.616 83.0659 87.016V89.032H76.2979V86.824C76.2979 85.576 76.2019 84.504 76.0099 83.608C75.8499 82.712 75.4979 82.04 74.9539 81.592C74.4419 81.112 73.5939 80.872 72.4099 80.872C71.1619 80.872 70.2499 81.176 69.6739 81.784C69.1299 82.392 68.7779 83.192 68.6179 84.184C68.4899 85.176 68.4259 86.264 68.4259 87.448V103.72C68.4259 105.064 68.5379 106.232 68.7619 107.224C68.9859 108.216 69.4019 108.984 70.0099 109.528C70.6179 110.04 71.4819 110.296 72.6019 110.296C73.7539 110.296 74.6339 110.008 75.2419 109.432C75.8499 108.856 76.2659 108.056 76.4899 107.032C76.7459 106.008 76.8739 104.792 76.8739 103.384V99.736H72.6979V95.272H83.2579V115H78.6979L78.1699 111.16C77.6579 112.44 76.8739 113.496 75.8179 114.328C74.7939 115.128 73.3859 115.528 71.5939 115.528ZM88.6624 115V76.12H97.9744C100.598 76.12 102.806 76.44 104.598 77.08C106.422 77.688 107.798 78.744 108.726 80.248C109.686 81.752 110.166 83.8 110.166 86.392C110.166 87.96 110.022 89.368 109.734 90.616C109.446 91.864 108.95 92.936 108.246 93.832C107.574 94.696 106.63 95.368 105.414 95.848L110.838 115H103.734L99.0304 97.192H95.7664V115H88.6624ZM95.7664 92.728H97.9744C99.3504 92.728 100.438 92.536 101.238 92.152C102.07 91.736 102.662 91.096 103.014 90.232C103.366 89.336 103.542 88.2 103.542 86.824C103.542 84.872 103.174 83.416 102.438 82.456C101.734 81.464 100.374 80.968 98.3584 80.968H95.7664V92.728ZM115.569 115V76.12H131.889V81.112H122.673V92.296H129.921V97.24H122.673V110.104H131.985V115H115.569ZM145.892 115.528C143.556 115.528 141.604 115.08 140.036 114.184C138.468 113.256 137.284 111.912 136.484 110.152C135.684 108.392 135.236 106.232 135.14 103.672L141.236 102.472C141.3 103.976 141.476 105.304 141.764 106.456C142.084 107.608 142.548 108.504 143.156 109.144C143.796 109.752 144.628 110.056 145.652 110.056C146.804 110.056 147.62 109.72 148.1 109.048C148.58 108.344 148.82 107.464 148.82 106.408C148.82 104.712 148.436 103.32 147.668 102.232C146.9 101.144 145.876 100.056 144.596 98.968L139.7 94.648C138.324 93.464 137.22 92.152 136.388 90.712C135.588 89.24 135.188 87.432 135.188 85.288C135.188 82.216 136.084 79.848 137.876 78.184C139.668 76.52 142.116 75.688 145.22 75.688C147.044 75.688 148.564 75.976 149.78 76.552C150.996 77.096 151.956 77.864 152.66 78.856C153.396 79.848 153.94 80.984 154.292 82.264C154.644 83.512 154.868 84.84 154.964 86.248L148.916 87.304C148.852 86.088 148.708 85 148.484 84.04C148.292 83.08 147.924 82.328 147.38 81.784C146.868 81.24 146.1 80.968 145.076 80.968C144.02 80.968 143.204 81.32 142.628 82.024C142.084 82.696 141.812 83.544 141.812 84.568C141.812 85.88 142.084 86.968 142.628 87.832C143.172 88.664 143.956 89.528 144.98 90.424L149.828 94.696C151.428 96.04 152.788 97.624 153.908 99.448C155.06 101.24 155.636 103.416 155.636 105.976C155.636 107.832 155.22 109.48 154.388 110.92C153.588 112.36 152.452 113.496 150.98 114.328C149.54 115.128 147.844 115.528 145.892 115.528ZM170.379 115.528C167.627 115.528 165.435 115.016 163.803 113.992C162.171 112.968 161.003 111.496 160.299 109.576C159.595 107.656 159.243 105.384 159.243 102.76V88.216C159.243 85.592 159.595 83.352 160.299 81.496C161.003 79.608 162.171 78.168 163.803 77.176C165.435 76.184 167.627 75.688 170.379 75.688C173.195 75.688 175.403 76.184 177.003 77.176C178.635 78.168 179.803 79.608 180.507 81.496C181.243 83.352 181.611 85.592 181.611 88.216V102.808C181.611 105.4 181.243 107.656 180.507 109.576C179.803 111.464 178.635 112.936 177.003 113.992C175.403 115.016 173.195 115.528 170.379 115.528ZM170.379 110.296C171.563 110.296 172.427 110.04 172.971 109.528C173.547 109.016 173.931 108.312 174.123 107.416C174.315 106.52 174.411 105.544 174.411 104.488V86.584C174.411 85.496 174.315 84.52 174.123 83.656C173.931 82.792 173.547 82.12 172.971 81.64C172.427 81.128 171.563 80.872 170.379 80.872C169.259 80.872 168.411 81.128 167.835 81.64C167.259 82.12 166.875 82.792 166.683 83.656C166.491 84.52 166.395 85.496 166.395 86.584V104.488C166.395 105.544 166.475 106.52 166.635 107.416C166.827 108.312 167.211 109.016 167.787 109.528C168.363 110.04 169.227 110.296 170.379 110.296ZM196.609 115.528C194.05 115.528 192.018 114.984 190.514 113.896C189.01 112.808 187.922 111.272 187.25 109.288C186.61 107.272 186.29 104.904 186.29 102.184V89.128C186.29 86.344 186.61 83.944 187.25 81.928C187.89 79.912 189.01 78.376 190.61 77.32C192.242 76.232 194.482 75.688 197.33 75.688C199.986 75.688 202.098 76.136 203.666 77.032C205.234 77.928 206.354 79.224 207.026 80.92C207.73 82.584 208.082 84.616 208.082 87.016V89.032H201.314V86.824C201.314 85.576 201.218 84.504 201.026 83.608C200.866 82.712 200.514 82.04 199.97 81.592C199.458 81.112 198.61 80.872 197.426 80.872C196.178 80.872 195.266 81.176 194.69 81.784C194.146 82.392 193.794 83.192 193.634 84.184C193.506 85.176 193.442 86.264 193.442 87.448V103.72C193.442 105.064 193.554 106.232 193.778 107.224C194.002 108.216 194.418 108.984 195.026 109.528C195.634 110.04 196.498 110.296 197.618 110.296C198.77 110.296 199.65 110.008 200.258 109.432C200.866 108.856 201.282 108.056 201.506 107.032C201.762 106.008 201.89 104.792 201.89 103.384V99.736H197.714V95.272H208.274V115H203.714L203.186 111.16C202.674 112.44 201.89 113.496 200.834 114.328C199.81 115.128 198.402 115.528 196.609 115.528ZM224.238 115.528C221.486 115.528 219.294 115.016 217.662 113.992C216.03 112.968 214.862 111.496 214.158 109.576C213.454 107.656 213.102 105.384 213.102 102.76V88.216C213.102 85.592 213.454 83.352 214.158 81.496C214.862 79.608 216.03 78.168 217.662 77.176C219.294 76.184 221.486 75.688 224.238 75.688C227.054 75.688 229.262 76.184 230.862 77.176C232.494 78.168 233.662 79.608 234.366 81.496C235.102 83.352 235.47 85.592 235.47 88.216V102.808C235.47 105.4 235.102 107.656 234.366 109.576C233.662 111.464 232.494 112.936 230.862 113.992C229.262 115.016 227.054 115.528 224.238 115.528ZM224.238 110.296C225.422 110.296 226.286 110.04 226.83 109.528C227.406 109.016 227.79 108.312 227.982 107.416C228.174 106.52 228.27 105.544 228.27 104.488V86.584C228.27 85.496 228.174 84.52 227.982 83.656C227.79 82.792 227.406 82.12 226.83 81.64C226.286 81.128 225.422 80.872 224.238 80.872C223.118 80.872 222.27 81.128 221.694 81.64C221.118 82.12 220.734 82.792 220.542 83.656C220.35 84.52 220.254 85.496 220.254 86.584V104.488C220.254 105.544 220.334 106.52 220.494 107.416C220.686 108.312 221.07 109.016 221.646 109.528C222.222 110.04 223.086 110.296 224.238 110.296ZM240.725 115V76.12H245.669L255.125 98.296V76.12H260.981V115H256.277L246.773 91.768V115H240.725ZM277.441 115.528C274.689 115.528 272.497 115.016 270.865 113.992C269.233 112.968 268.065 111.496 267.361 109.576C266.657 107.656 266.305 105.384 266.305 102.76V88.216C266.305 85.592 266.657 83.352 267.361 81.496C268.065 79.608 269.233 78.168 270.865 77.176C272.497 76.184 274.689 75.688 277.441 75.688C280.257 75.688 282.465 76.184 284.065 77.176C285.697 78.168 286.865 79.608 287.569 81.496C288.305 83.352 288.673 85.592 288.673 88.216V102.808C288.673 105.4 288.305 107.656 287.569 109.576C286.865 111.464 285.697 112.936 284.065 113.992C282.465 115.016 280.257 115.528 277.441 115.528ZM277.441 110.296C278.625 110.296 279.489 110.04 280.033 109.528C280.609 109.016 280.993 108.312 281.185 107.416C281.377 106.52 281.473 105.544 281.473 104.488V86.584C281.473 85.496 281.377 84.52 281.185 83.656C280.993 82.792 280.609 82.12 280.033 81.64C279.489 81.128 278.625 80.872 277.441 80.872C276.321 80.872 275.473 81.128 274.897 81.64C274.321 82.12 273.937 82.792 273.745 83.656C273.553 84.52 273.457 85.496 273.457 86.584V104.488C273.457 105.544 273.537 106.52 273.697 107.416C273.889 108.312 274.273 109.016 274.849 109.528C275.425 110.04 276.289 110.296 277.441 110.296Z" fill="#17ABFF"/>
<path d="M3.15 169V154.725H0.675V150.75H7.6V169H3.15ZM9.87441 172.775L11.4744 164.675H15.8494L12.6744 172.775H9.87441ZM22.9232 168.75V165.575C26.7982 162.375 30.9232 159.2 30.9232 156.125C30.9232 154.8 30.3232 153.95 29.0232 153.95C27.7482 153.95 26.9982 154.95 26.9982 156.675H22.8732C22.9982 152.25 25.8732 150.35 29.1982 150.35C33.3482 150.35 35.1982 152.775 35.1982 155.85C35.1982 159.85 31.6232 163.05 28.7232 165.275H35.4732V168.75H22.9232ZM55.5283 155.7H51.5033C51.5283 154.75 50.9533 154.3 50.2033 154.3C49.4033 154.3 48.8033 154.8 48.8033 155.55C48.8033 156.275 49.2783 157 50.2033 157.975L54.4783 162.15C54.5783 161.925 54.7033 161.7 54.8033 161.45L55.7283 159.875H60.0033L58.8033 162.05C58.3283 163.1 57.8033 164.025 57.2533 164.85L61.4783 169H56.5033L54.8783 167.425C53.2783 168.65 51.3783 169.275 49.0783 169.275C45.0033 169.275 42.4283 167.15 42.4283 163.9C42.4283 161.75 43.5783 159.875 46.0033 158.725C45.1033 157.65 44.7783 156.7 44.7783 155.575C44.7783 153.1 46.7533 151.1 50.2533 151.1C53.8283 151.1 55.6033 153.275 55.5283 155.7ZM49.2783 165.825C50.4283 165.825 51.4033 165.5 52.2533 164.875L48.3533 161.1C47.1533 161.725 46.5533 162.6 46.5533 163.6C46.5533 164.825 47.5783 165.825 49.2783 165.825ZM68.0475 155.9C68.1975 152.3 70.5475 150.325 74.2725 150.325C78.1225 150.325 80.1975 152.525 80.1975 155.275C80.1975 157.675 78.6975 158.95 77.4475 159.375V159.475C79.2725 160.075 80.5225 161.475 80.5225 163.875C80.5225 166.95 78.3225 169.15 74.4975 169.15C70.6975 169.15 67.9475 167.35 67.8225 163.225H71.9725C71.9975 164.65 72.7725 165.6 74.3475 165.6C75.6725 165.6 76.3975 164.75 76.3975 163.55C76.3975 161.925 75.4225 161.275 73.1975 161.275H72.3975V157.8H73.1975C74.6475 157.8 76.0475 157.45 76.0475 155.8C76.0475 154.575 75.3225 153.9 74.1725 153.9C72.7975 153.9 72.2975 154.9 72.2225 155.9H68.0475ZM98.432 163.65C98.432 162.4 97.557 161.675 96.132 161.675H93.032V165.55H96.182C97.607 165.55 98.432 164.9 98.432 163.65ZM98.007 156.725C98.007 155.525 97.232 154.875 95.832 154.875H93.032V158.55H95.832C97.232 158.55 98.007 157.925 98.007 156.725ZM102.757 164.225C102.757 167.125 100.632 169 96.932 169H88.757V151.45H96.657C100.232 151.45 102.357 153.225 102.357 156C102.357 158.125 101.082 159.5 99.382 160C101.432 160.425 102.757 162.225 102.757 164.225ZM111.387 158.275C109.987 158.275 108.912 159.125 108.662 160.675H114.012C114.012 159.15 112.812 158.275 111.387 158.275ZM118.062 164.375C117.387 167.1 114.912 169.2 111.437 169.2C107.337 169.2 104.387 166.45 104.387 162.025C104.387 157.6 107.287 154.85 111.437 154.85C115.512 154.85 118.387 157.55 118.387 161.8C118.387 162.2 118.362 162.625 118.312 163.05H108.637C108.787 164.875 109.912 165.725 111.287 165.725C112.487 165.725 113.162 165.125 113.512 164.375H118.062ZM119.792 162C119.792 157.6 122.517 154.85 125.942 154.85C127.792 154.85 129.392 155.7 130.242 156.975V150.5H134.517V169H130.242V167C129.467 168.275 127.992 169.2 125.942 169.2C122.517 169.2 119.792 166.4 119.792 162ZM130.242 162.025C130.242 159.8 128.817 158.575 127.192 158.575C125.592 158.575 124.142 159.775 124.142 162C124.142 164.225 125.592 165.475 127.192 165.475C128.817 165.475 130.242 164.25 130.242 162.025ZM141.885 162.525V169H137.61V155.05H141.885V157.375C142.86 155.9 144.385 154.9 146.26 154.9V159.425H145.085C143.06 159.425 141.885 160.125 141.885 162.525ZM161.953 162.025C161.953 166.45 158.753 169.2 154.653 169.2C150.553 169.2 147.453 166.45 147.453 162.025C147.453 157.6 150.628 154.85 154.703 154.85C158.803 154.85 161.953 157.6 161.953 162.025ZM151.803 162.025C151.803 164.375 153.103 165.5 154.653 165.5C156.178 165.5 157.603 164.375 157.603 162.025C157.603 159.65 156.203 158.55 154.703 158.55C153.153 158.55 151.803 159.65 151.803 162.025ZM177.871 162.025C177.871 166.45 174.671 169.2 170.571 169.2C166.471 169.2 163.371 166.45 163.371 162.025C163.371 157.6 166.546 154.85 170.621 154.85C174.721 154.85 177.871 157.6 177.871 162.025ZM167.721 162.025C167.721 164.375 169.021 165.5 170.571 165.5C172.096 165.5 173.521 164.375 173.521 162.025C173.521 159.65 172.121 158.55 170.621 158.55C169.071 158.55 167.721 159.65 167.721 162.025ZM199.364 169V161.425C199.364 159.6 198.314 158.6 196.689 158.6C195.064 158.6 194.014 159.6 194.014 161.425V169H189.764V161.425C189.764 159.6 188.714 158.6 187.089 158.6C185.464 158.6 184.414 159.6 184.414 161.425V169H180.139V155.05H184.414V156.8C185.239 155.675 186.664 154.9 188.489 154.9C190.589 154.9 192.289 155.825 193.239 157.5C194.164 156.025 195.914 154.9 197.939 154.9C201.389 154.9 203.614 157.1 203.614 160.85V169H199.364ZM217.929 164.95C217.929 167.375 215.779 169.2 212.279 169.2C208.554 169.2 206.054 167.125 205.854 164.425H210.079C210.179 165.4 211.054 166.05 212.229 166.05C213.329 166.05 213.904 165.55 213.904 164.925C213.904 162.675 206.304 164.3 206.304 159.175C206.304 156.8 208.329 154.85 211.979 154.85C215.579 154.85 217.579 156.85 217.854 159.6H213.904C213.779 158.65 213.054 158.025 211.854 158.025C210.854 158.025 210.304 158.425 210.304 159.1C210.304 161.325 217.854 159.75 217.929 164.95ZM238.592 163.775C238.592 166.725 236.292 169.175 232.192 169.175C228.417 169.175 225.467 167.3 225.342 163.75H229.892C230.017 165.1 230.867 165.75 232.067 165.75C233.317 165.75 234.117 165.125 234.117 164.1C234.117 160.85 225.342 162.6 225.392 156.375C225.392 153.05 228.117 151.2 231.792 151.2C235.617 151.2 238.192 153.1 238.367 156.45H233.742C233.667 155.325 232.867 154.65 231.717 154.625C230.692 154.6 229.917 155.125 229.917 156.225C229.917 159.275 238.592 157.9 238.592 163.775ZM247.373 158.275C245.973 158.275 244.898 159.125 244.648 160.675H249.998C249.998 159.15 248.798 158.275 247.373 158.275ZM254.048 164.375C253.373 167.1 250.898 169.2 247.423 169.2C243.323 169.2 240.373 166.45 240.373 162.025C240.373 157.6 243.273 154.85 247.423 154.85C251.498 154.85 254.373 157.55 254.373 161.8C254.373 162.2 254.348 162.625 254.298 163.05H244.623C244.773 164.875 245.898 165.725 247.273 165.725C248.473 165.725 249.148 165.125 249.498 164.375H254.048ZM255.778 162C255.778 157.6 258.503 154.85 261.928 154.85C264.003 154.85 265.478 155.8 266.228 157.025V155.05H270.503V169H266.228V167.025C265.453 168.25 263.978 169.2 261.903 169.2C258.503 169.2 255.778 166.4 255.778 162ZM266.228 162.025C266.228 159.8 264.803 158.575 263.178 158.575C261.578 158.575 260.128 159.775 260.128 162C260.128 164.225 261.578 165.475 263.178 165.475C264.803 165.475 266.228 164.25 266.228 162.025ZM284.921 164.95C284.921 167.375 282.771 169.2 279.271 169.2C275.546 169.2 273.046 167.125 272.846 164.425H277.071C277.171 165.4 278.046 166.05 279.221 166.05C280.321 166.05 280.896 165.55 280.896 164.925C280.896 162.675 273.296 164.3 273.296 159.175C273.296 156.8 275.321 154.85 278.971 154.85C282.571 154.85 284.571 156.85 284.846 159.6H280.896C280.771 158.65 280.046 158.025 278.846 158.025C277.846 158.025 277.296 158.425 277.296 159.1C277.296 161.325 284.846 159.75 284.921 164.95ZM287.536 169V155.05H291.811V169H287.536ZM289.686 153.6C288.161 153.6 287.136 152.575 287.136 151.3C287.136 150 288.161 148.975 289.686 148.975C291.186 148.975 292.211 150 292.211 151.3C292.211 152.575 291.186 153.6 289.686 153.6ZM294.059 162C294.059 157.6 296.784 154.85 300.209 154.85C302.059 154.85 303.659 155.7 304.509 156.975V150.5H308.784V169H304.509V167C303.734 168.275 302.259 169.2 300.209 169.2C296.784 169.2 294.059 166.4 294.059 162ZM304.509 162.025C304.509 159.8 303.084 158.575 301.459 158.575C299.859 158.575 298.409 159.775 298.409 162C298.409 164.225 299.859 165.475 301.459 165.475C303.084 165.475 304.509 164.25 304.509 162.025ZM318.027 158.275C316.627 158.275 315.552 159.125 315.302 160.675H320.652C320.652 159.15 319.452 158.275 318.027 158.275ZM324.702 164.375C324.027 167.1 321.552 169.2 318.077 169.2C313.977 169.2 311.027 166.45 311.027 162.025C311.027 157.6 313.927 154.85 318.077 154.85C322.152 154.85 325.027 157.55 325.027 161.8C325.027 162.2 325.002 162.625 324.952 163.05H315.277C315.427 164.875 316.552 165.725 317.927 165.725C319.127 165.725 319.802 165.125 320.152 164.375H324.702ZM344.555 169L343.505 165.9H336.955L335.905 169H331.43L337.78 151.45H342.73L349.08 169H344.555ZM342.405 162.6L340.23 156.175L338.08 162.6H342.405ZM355.288 157.025C356.063 155.8 357.538 154.85 359.588 154.85C363.013 154.85 365.738 157.6 365.738 162C365.738 166.4 363.013 169.2 359.588 169.2C357.538 169.2 356.063 168.225 355.288 167.05V175.65H351.013V155.05H355.288V157.025ZM361.388 162C361.388 159.775 359.938 158.575 358.313 158.575C356.713 158.575 355.263 159.8 355.263 162.025C355.263 164.25 356.713 165.475 358.313 165.475C359.938 165.475 361.388 164.225 361.388 162ZM367.131 162C367.131 157.6 369.856 154.85 373.281 154.85C375.356 154.85 376.831 155.8 377.581 157.025V155.05H381.856V169H377.581V167.025C376.806 168.25 375.331 169.2 373.256 169.2C369.856 169.2 367.131 166.4 367.131 162ZM377.581 162.025C377.581 159.8 376.156 158.575 374.531 158.575C372.931 158.575 371.481 159.775 371.481 162C371.481 164.225 372.931 165.475 374.531 165.475C376.156 165.475 377.581 164.25 377.581 162.025ZM389.223 162.525V169H384.948V155.05H389.223V157.375C390.198 155.9 391.723 154.9 393.598 154.9V159.425H392.423C390.398 159.425 389.223 160.125 389.223 162.525ZM396.317 164.15V158.6H394.617V155.05H396.317V151.65H400.592V155.05H403.392V158.6H400.592V164.2C400.592 165.025 400.942 165.375 401.892 165.375H403.417V169H401.242C398.342 169 396.317 167.775 396.317 164.15ZM425.023 169V161.425C425.023 159.6 423.973 158.6 422.348 158.6C420.723 158.6 419.673 159.6 419.673 161.425V169H415.423V161.425C415.423 159.6 414.373 158.6 412.748 158.6C411.123 158.6 410.073 159.6 410.073 161.425V169H405.798V155.05H410.073V156.8C410.898 155.675 412.323 154.9 414.148 154.9C416.248 154.9 417.948 155.825 418.898 157.5C419.823 156.025 421.573 154.9 423.598 154.9C427.048 154.9 429.273 157.1 429.273 160.85V169H425.023ZM438.413 158.275C437.013 158.275 435.938 159.125 435.688 160.675H441.038C441.038 159.15 439.838 158.275 438.413 158.275ZM445.088 164.375C444.413 167.1 441.938 169.2 438.463 169.2C434.363 169.2 431.413 166.45 431.413 162.025C431.413 157.6 434.313 154.85 438.463 154.85C442.538 154.85 445.413 157.55 445.413 161.8C445.413 162.2 445.388 162.625 445.338 163.05H435.663C435.813 164.875 436.938 165.725 438.313 165.725C439.513 165.725 440.188 165.125 440.538 164.375H445.088ZM457.293 169V161.425C457.293 159.525 456.243 158.475 454.618 158.475C452.993 158.475 451.943 159.525 451.943 161.425V169H447.668V155.05H451.943V156.9C452.793 155.725 454.293 154.9 456.168 154.9C459.393 154.9 461.543 157.1 461.543 160.85V169H457.293ZM465.189 164.15V158.6H463.489V155.05H465.189V151.65H469.464V155.05H472.264V158.6H469.464V164.2C469.464 165.025 469.814 165.375 470.764 165.375H472.289V169H470.114C467.214 169 465.189 167.775 465.189 164.15ZM485.995 164.95C485.995 167.375 483.845 169.2 480.345 169.2C476.62 169.2 474.12 167.125 473.92 164.425H478.145C478.245 165.4 479.12 166.05 480.295 166.05C481.395 166.05 481.97 165.55 481.97 164.925C481.97 162.675 474.37 164.3 474.37 159.175C474.37 156.8 476.395 154.85 480.045 154.85C483.645 154.85 485.645 156.85 485.92 159.6H481.97C481.845 158.65 481.12 158.025 479.92 158.025C478.92 158.025 478.37 158.425 478.37 159.1C478.37 161.325 485.92 159.75 485.995 164.95ZM1.55 202V188.05H5.825V202H1.55ZM3.7 186.6C2.175 186.6 1.15 185.575 1.15 184.3C1.15 183 2.175 181.975 3.7 181.975C5.2 181.975 6.225 183 6.225 184.3C6.225 185.575 5.2 186.6 3.7 186.6ZM18.548 202V194.425C18.548 192.525 17.498 191.475 15.873 191.475C14.248 191.475 13.198 192.525 13.198 194.425V202H8.92305V188.05H13.198V189.9C14.048 188.725 15.548 187.9 17.423 187.9C20.648 187.9 22.798 190.1 22.798 193.85V202H18.548ZM37.6416 184.45C43.2416 184.45 46.8416 188 46.8416 193.225C46.8416 198.425 43.2416 202 37.6416 202H31.0666V184.45H37.6416ZM35.3416 198.3H37.3666C40.5916 198.3 42.4916 196.45 42.4916 193.225C42.4916 190 40.5916 188.1 37.3666 188.1H35.3416V198.3ZM63.0057 188.05V202H58.7307V200.1C57.8807 201.3 56.3807 202.15 54.5057 202.15C51.2807 202.15 49.1057 199.925 49.1057 196.2V188.05H53.3557V195.625C53.3557 197.525 54.4307 198.575 56.0307 198.575C57.6807 198.575 58.7307 197.525 58.7307 195.625V188.05H63.0057ZM70.3514 190.025C71.1264 188.775 72.6514 187.85 74.6514 187.85C78.1014 187.85 80.8014 190.6 80.8014 195C80.8014 199.4 78.0764 202.2 74.6514 202.2C72.6014 202.2 71.1264 201.275 70.3514 200.05V202H66.0764V183.5H70.3514V190.025ZM76.4514 195C76.4514 192.775 75.0014 191.575 73.3764 191.575C71.7764 191.575 70.3264 192.8 70.3264 195.025C70.3264 197.25 71.7764 198.475 73.3764 198.475C75.0014 198.475 76.4514 197.225 76.4514 195ZM82.1941 195C82.1941 190.6 84.9191 187.85 88.3441 187.85C90.4191 187.85 91.8941 188.8 92.6441 190.025V188.05H96.9191V202H92.6441V200.025C91.8691 201.25 90.3941 202.2 88.3191 202.2C84.9191 202.2 82.1941 199.4 82.1941 195ZM92.6441 195.025C92.6441 192.8 91.2191 191.575 89.5941 191.575C87.9941 191.575 86.5441 192.775 86.5441 195C86.5441 197.225 87.9941 198.475 89.5941 198.475C91.2191 198.475 92.6441 197.25 92.6441 195.025ZM100.012 202V188.05H104.287V202H100.012ZM102.162 186.6C100.637 186.6 99.6119 185.575 99.6119 184.3C99.6119 183 100.637 181.975 102.162 181.975C103.662 181.975 104.687 183 104.687 184.3C104.687 185.575 103.662 186.6 102.162 186.6ZM112.683 202V184.45H117.733L122.658 196.6L127.533 184.45H132.558V202H128.283V191.475L124.358 202H120.908L116.958 191.45V202H112.683ZM134.782 195C134.782 190.6 137.507 187.85 140.932 187.85C143.007 187.85 144.482 188.8 145.232 190.025V188.05H149.507V202H145.232V200.025C144.457 201.25 142.982 202.2 140.907 202.2C137.507 202.2 134.782 199.4 134.782 195ZM145.232 195.025C145.232 192.8 143.807 191.575 142.182 191.575C140.582 191.575 139.132 192.775 139.132 195C139.132 197.225 140.582 198.475 142.182 198.475C143.807 198.475 145.232 197.25 145.232 195.025ZM156.875 195.525V202H152.6V188.05H156.875V190.375C157.85 188.9 159.375 187.9 161.25 187.9V192.425H160.075C158.05 192.425 156.875 193.125 156.875 195.525ZM163.293 202V188.05H167.568V202H163.293ZM165.443 186.6C163.918 186.6 162.893 185.575 162.893 184.3C162.893 183 163.918 181.975 165.443 181.975C166.943 181.975 167.968 183 167.968 184.3C167.968 185.575 166.943 186.6 165.443 186.6ZM171.341 197.15V191.6H169.641V188.05H171.341V184.65H175.616V188.05H178.416V191.6H175.616V197.2C175.616 198.025 175.966 198.375 176.916 198.375H178.441V202H176.266C173.366 202 171.341 200.775 171.341 197.15ZM180.822 202V188.05H185.097V202H180.822ZM182.972 186.6C181.447 186.6 180.422 185.575 180.422 184.3C180.422 183 181.447 181.975 182.972 181.975C184.472 181.975 185.497 183 185.497 184.3C185.497 185.575 184.472 186.6 182.972 186.6ZM207.421 202V194.425C207.421 192.6 206.371 191.6 204.746 191.6C203.121 191.6 202.071 192.6 202.071 194.425V202H197.821V194.425C197.821 192.6 196.771 191.6 195.146 191.6C193.521 191.6 192.471 192.6 192.471 194.425V202H188.196V188.05H192.471V189.8C193.296 188.675 194.721 187.9 196.546 187.9C198.646 187.9 200.346 188.825 201.296 190.5C202.221 189.025 203.971 187.9 205.996 187.9C209.446 187.9 211.671 190.1 211.671 193.85V202H207.421ZM220.81 191.275C219.41 191.275 218.335 192.125 218.085 193.675H223.435C223.435 192.15 222.235 191.275 220.81 191.275ZM227.485 197.375C226.81 200.1 224.335 202.2 220.86 202.2C216.76 202.2 213.81 199.45 213.81 195.025C213.81 190.6 216.71 187.85 220.86 187.85C224.935 187.85 227.81 190.55 227.81 194.8C227.81 195.2 227.785 195.625 227.735 196.05H218.06C218.21 197.875 219.335 198.725 220.71 198.725C221.91 198.725 222.585 198.125 222.935 197.375H227.485ZM234.638 193.2C234.638 187.95 238.288 184.25 243.463 184.25C247.638 184.25 250.788 186.6 251.788 190.4H247.088C246.363 188.9 245.038 188.15 243.413 188.15C240.788 188.15 238.988 190.1 238.988 193.2C238.988 196.3 240.788 198.25 243.413 198.25C245.038 198.25 246.363 197.5 247.088 196H251.788C250.788 199.8 247.638 202.125 243.463 202.125C238.288 202.125 234.638 198.45 234.638 193.2ZM254.406 202V188.05H258.681V202H254.406ZM256.556 186.6C255.031 186.6 254.006 185.575 254.006 184.3C254.006 183 255.031 181.975 256.556 181.975C258.056 181.975 259.081 183 259.081 184.3C259.081 185.575 258.056 186.6 256.556 186.6ZM262.454 197.15V191.6H260.754V188.05H262.454V184.65H266.729V188.05H269.529V191.6H266.729V197.2C266.729 198.025 267.079 198.375 268.029 198.375H269.554V202H267.379C264.479 202 262.454 200.775 262.454 197.15ZM278.361 196.775L281.561 188.05H286.186L277.436 208.625H272.836L276.036 201.525L270.361 188.05H275.136L278.361 196.775Z" fill="#FCFCFC"/>
</svg>
